<!--?xml version="1.0" standalone="no"?-->
              <svg id="sw-js-blob-svg" viewBox="0 0 100 100" xmlns="http://www.w3.org/2000/svg" version="1.1">
                    <defs> 
                        <linearGradient id="sw-gradient" x1="0" x2="1" y1="1" y2="0">
                            <stop id="stop1" stop-color="rgba(128, 203, 187, 1)" offset="0%"></stop>
                            <stop id="stop2" stop-color="rgba(251, 168, 31, 1)" offset="100%"></stop>
                        </linearGradient>
                    </defs>
                <path fill="rgba(128, 203, 187, 1)" d="M28.5,-33.3C36.4,-27.2,42.1,-17.8,42.9,-8.3C43.7,1.3,39.7,10.9,33.5,17.1C27.3,23.2,18.8,25.9,10.1,29.9C1.4,34,-7.5,39.5,-15.6,38.4C-23.7,37.4,-31,29.7,-35.9,20.9C-40.8,12,-43.3,2,-41.9,-7.6C-40.5,-17.2,-35.1,-26.3,-27.4,-32.4C-19.8,-38.5,-9.9,-41.7,0.2,-41.9C10.3,-42.2,20.5,-39.4,28.5,-33.3Z" width="100%" height="100%" transform="translate(50 50)" stroke-width="0" style="transition: all 0.3s ease 0s;"></path>
              </svg>