<!--?xml version="1.0" standalone="no"?-->
              <svg id="sw-js-blob-svg" viewBox="0 0 100 100" xmlns="http://www.w3.org/2000/svg" version="1.1">
                    <defs> 
                        <linearGradient id="sw-gradient" x1="0" x2="1" y1="1" y2="0">
                            <stop id="stop1" stop-color="rgba(128, 203, 187, 1)" offset="0%"></stop>
                            <stop id="stop2" stop-color="rgba(251, 168, 31, 1)" offset="100%"></stop>
                        </linearGradient>
                    </defs>
                <path fill="rgba(128, 203, 187, 1)" d="M23.1,-26.6C31,-20.9,39.2,-14.6,41.5,-6.6C43.8,1.5,40.2,11.3,34.7,19.2C29.2,27.2,21.7,33.2,12.8,37.4C3.9,41.6,-6.4,43.8,-15.3,41C-24.1,38.2,-31.4,30.3,-35.1,21.5C-38.8,12.6,-38.9,2.9,-36.1,-5.3C-33.3,-13.4,-27.8,-19.9,-21.3,-25.8C-14.8,-31.7,-7.4,-37,0.1,-37.2C7.6,-37.3,15.2,-32.3,23.1,-26.6Z" width="100%" height="100%" transform="translate(50 50)" stroke-width="0" style="transition: all 0.3s ease 0s;"></path>
              </svg>